<svg id="Layer_1" data-name="Layer 1" xmlns="http://www.w3.org/2000/svg" viewBox="0 0 277.37 260.27"><defs><style>.cls-1{fill:#fff;}</style></defs><path class="cls-1" d="M55.5,208.63A17.58,17.58,0,0,1,39.1,197a25.75,25.75,0,0,1-1.57-11.28c1-11.78,10.09-17.89,11.11-18.55A24.32,24.32,0,0,1,53.1,165a25.09,25.09,0,0,1,7.18-1.33c1-.08,2-.12,3-.12a41.48,41.48,0,0,1,4.31.23l.44,0a4.24,4.24,0,0,0,3.37-1.67,4.45,4.45,0,0,0,.79-3.86L38.77,29.59A4.73,4.73,0,0,0,34.22,26H4c-2.21,0-4-2.06-4-4.6s1.8-4.6,4-4.6h25.3A4.64,4.64,0,0,0,33,15a5,5,0,0,0,.86-4.29L33,7.2c-.79-3,.77-6.18,3.47-7A4.72,4.72,0,0,1,37.71,0a5.11,5.11,0,0,1,4.75,4l2.73,10.51,4,15.2,4.17,16.08a4.64,4.64,0,0,0,4.45,3.52H272.19c2.85,0,5.18,2.63,5.18,5.86s-2.33,5.86-5.18,5.86H256.33a4.63,4.63,0,0,0-4.44,3.51l-23.73,91.28a6.68,6.68,0,0,0,1.15,5.74,6.07,6.07,0,0,0,4.81,2.4h21.22c2.58,0,4.67,2.38,4.67,5.31v.37c0,2.93-2.09,5.31-4.67,5.31l-192,.07A9.19,9.19,0,0,0,54.61,182a13.2,13.2,0,0,0,.25,7.82A12,12,0,0,0,65.94,198H265c2.57,0,4.67,2.38,4.67,5.31s-2.1,5.32-4.67,5.32ZM63.28,61.07a4.52,4.52,0,0,0-3.6,1.79A4.86,4.86,0,0,0,58.84,67l24,92.39A6,6,0,0,0,88.6,164H211a6.25,6.25,0,0,0,6-4.76l24-92.21a4.86,4.86,0,0,0-.84-4.17,4.52,4.52,0,0,0-3.6-1.79Z"/><path class="cls-1" d="M109.57,260.27a23,23,0,1,1,23-23A23,23,0,0,1,109.57,260.27Zm0-34.51a11.55,11.55,0,1,0,11.55,11.55A11.57,11.57,0,0,0,109.57,225.76Z"/><path class="cls-1" d="M193,260.27a23,23,0,1,1,23-23A23,23,0,0,1,193,260.27Zm0-34.51a11.55,11.55,0,1,0,11.55,11.55A11.56,11.56,0,0,0,193,225.76Z"/></svg>