<svg fill="#000000" xmlns="http://www.w3.org/2000/svg"  viewBox="0 0 32 32" width="64px" height="64px"><path d="M 23.900391 3.9726562 C 22.853426 3.9726562 21.805365 4.3801809 20.992188 5.1933594 L 5.1796875 21.007812 L 3.7246094 28.275391 L 10.992188 26.820312 L 11.207031 26.607422 L 26.806641 11.007812 C 28.432998 9.381456 28.432998 6.8197164 26.806641 5.1933594 C 25.993462 4.3801809 24.947355 3.9726563 23.900391 3.9726562 z M 23.900391 5.8769531 C 24.403426 5.8769531 24.905757 6.1206004 25.392578 6.6074219 C 26.366221 7.5810649 26.366221 8.620107 25.392578 9.59375 L 24.699219 10.285156 L 21.714844 7.3007812 L 22.40625 6.6074219 C 22.893072 6.1206004 23.397355 5.8769531 23.900391 5.8769531 z M 20.300781 8.7148438 L 23.285156 11.699219 L 11.175781 23.810547 C 10.519916 22.5187 9.4812999 21.480084 8.1894531 20.824219 L 20.300781 8.7148438 z M 6.9042969 22.576172 C 8.0686534 23.064699 8.9374718 23.931222 9.4257812 25.095703 L 6.2753906 25.726562 L 6.9042969 22.576172 z"/></svg>