<?xml version="1.0" encoding="utf-8"?>
<!-- Generator: Adobe Illustrator 24.1.1, SVG Export Plug-In . SVG Version: 6.00 Build 0)  -->
<svg version="1.1" id="Layer_1" xmlns="http://www.w3.org/2000/svg" xmlns:xlink="http://www.w3.org/1999/xlink" x="0px" y="0px"
	 viewBox="0 0 512 512" style="enable-background:new 0 0 512 512;" xml:space="preserve">
<g>
	<path d="M318.3,177.4c7.6,0,13.8-6.2,13.8-13.8V52.9c0-22.9-18.6-41.5-41.5-41.5H41.5C18.6,11.4,0,30,0,52.9V385
		c0,20.6,14.9,43.2,33.8,51.3l142.9,61.2c4.9,2.1,9.9,3.1,14.7,3.1c5.9,0,11.5-1.6,16.3-4.8c8.7-5.7,13.7-15.9,13.7-27.9v-41.5h69.2
		c22.9,0,41.5-18.6,41.5-41.5V274.3c0-7.6-6.2-13.8-13.8-13.8s-13.8,6.2-13.8,13.8V385c0,7.6-6.2,13.8-13.8,13.8h-69.2V135.9
		c0-20.6-14.9-43.2-33.8-51.3L81.3,39h209.3c7.6,0,13.8,6.2,13.8,13.8v110.7C304.4,171.2,310.6,177.4,318.3,177.4L318.3,177.4z
		 M176.7,110.1c8.9,3.8,17.1,16.2,17.1,25.8V468c0,2.9-0.8,4.5-1.2,4.8c-0.5,0.3-2.2,0.4-4.9-0.7L44.7,410.8
		c-8.9-3.8-17-16.1-17-25.8V52.9l1.4-6.1L176.7,110.1z"/>
	<path d="M507.9,209.1l-83-83c-5.4-5.4-14.2-5.4-19.6,0c-5.4,5.4-5.4,14.2,0,19.6l59.4,59.4H290.6c-7.6,0-13.8,6.2-13.8,13.8
		c0,7.6,6.2,13.8,13.8,13.8h174.2l-59.4,59.4c-5.4,5.4-5.4,14.2,0,19.6c2.7,2.7,6.3,4,9.8,4c3.5,0,7.1-1.4,9.8-4l83-83
		C513.3,223.3,513.3,214.5,507.9,209.1L507.9,209.1z"/>
</g>
</svg>
