<svg id="Capa_1" data-name="Capa 1" xmlns="http://www.w3.org/2000/svg" viewBox="0 0 460.77 401.86"><path d="M230.3,401.86C200.72,377.14,171.25,352.73,142,328c-27.54-23.27-54.38-47.33-79.13-73.61C43.83,234.18,25.9,213,14.52,187.3c-17-38.3-20.58-77.64-2.65-116.42C31,29.54,64.33,6,109.68.94c40.12-4.51,74.4,8.92,103.44,36.5,3,2.81,5.85,5.7,8.68,8.64s5.54,6,8.65,9.35c1.19-1.27,2.32-2.44,3.4-3.65,15.36-17.11,32.34-32.23,53.75-41.34,67.61-28.76,145.07,3.77,167,74.76,11.65,37.67,6.24,74.31-11.63,109.13-12.78,24.93-31,45.84-50.36,65.78-32.9,33.9-68.94,64.33-105.15,94.56C268.68,370.36,249.71,385.85,230.3,401.86Zm0-35.13c13.63-11.23,26.81-22,39.89-32.88,34.18-28.47,68.29-57.05,99.59-88.75,18.14-18.37,35.25-37.6,47.62-60.49,14.12-26.12,19.84-53.93,13.54-83.14-13.76-63.88-83.19-91.9-139.22-63.09-17.08,8.78-30.44,22.07-42.94,36.31-6.11,7-12.08,14-18.32,21.27l-3.19-3.6C218,82,209.12,71.2,199.39,61.24c-18.31-18.74-40-30.81-66.67-33.68-36.74-4-74,14.22-92.3,46.44-16.82,29.62-16,60.55-5.34,91.73C43.42,190.16,59,210.14,76,229.06c25,27.82,53,52.52,81.41,76.71C181.43,326.19,205.77,346.22,230.33,366.73Z" fill="#faebd7"/><path d="M230.33,366.73c-24.56-20.51-48.9-40.54-72.9-61C129,281.58,101,256.88,76,229.06c-17-18.92-32.6-38.9-40.94-63.33C24.44,134.55,23.6,103.62,40.42,74,58.72,41.78,96,23.59,132.72,27.56c26.66,2.87,48.36,14.94,66.67,33.68C209.12,71.2,218,82,227.3,92.36l3.19,3.6c6.24-7.25,12.21-14.32,18.32-21.27,12.5-14.24,25.86-27.53,42.94-36.31,56-28.81,125.46-.79,139.22,63.09,6.3,29.21.58,57-13.54,83.14C405.06,207.5,388,226.73,369.81,245.1c-31.3,31.7-65.41,60.28-99.59,88.75C257.14,344.74,244,355.5,230.33,366.73Z" fill="#fa5a3c"/></svg>