<svg id="Layer_1" data-name="Layer 1" xmlns="http://www.w3.org/2000/svg" viewBox="0 0 254.94 254.22"><defs><style>.cls-1{fill:#fff;}</style></defs><path class="cls-1" d="M33.45,254.22a7.6,7.6,0,0,1-7.6-7.6v-2.47c0-28.88,0-58.75,0-88.31a9.58,9.58,0,0,0-3.18-7.46c-6.93-6.6-14.11-13.56-20.45-19.7l0,0a7.32,7.32,0,0,1,0-10.52L121.8,2.37a8.4,8.4,0,0,1,11.69,0l.59.58c10.17,9.83,20.67,20,31,30.05a9,9,0,0,0,6.74,2.7c11.39,0,22.42,0,31.7,0h16.8a8.4,8.4,0,0,1,8.4,8.39h0c0,15.19,0,30.9,0,46.44a9.1,9.1,0,0,0,3,7c7.09,6.78,14.17,13.65,21,20.29h0a7.32,7.32,0,0,1,0,10.52l-.12.11c-6.84,6.63-13.92,13.49-20.92,20.18a9,9,0,0,0-3,7c.05,30.76.05,62.79,0,91h0a7.6,7.6,0,0,1-7.6,7.6ZM127.28,55.3a5.32,5.32,0,0,0-3.58,1.4l-.46.44-9.85,9.54c-24.49,23.69-49.8,48.2-74.81,72.52a10.76,10.76,0,0,0-3.23,7.68c-.07,25.68-.07,51.8-.07,77.06v15.85a5.39,5.39,0,0,0,5.33,5.44H85.08a5.39,5.39,0,0,0,5.33-5.44V181.34a13.76,13.76,0,0,1,13.76-13.77h46.38a13.76,13.76,0,0,1,13.76,13.77v58.42a5.39,5.39,0,0,0,5.33,5.43H214a5.33,5.33,0,0,0,5.28-5.37V228c0-26.94,0-54.79-.07-82.18a9.25,9.25,0,0,0-2.76-6.17C191,114.85,164.33,89.08,140.83,66.34l-9.31-9-.66-.63A5.28,5.28,0,0,0,127.28,55.3Zm-22,121a5.39,5.39,0,0,0-5.33,5.44v58a5.39,5.39,0,0,0,5.33,5.43h44a5.39,5.39,0,0,0,5.33-5.43v-58a5.39,5.39,0,0,0-5.33-5.44ZM127.57,11.55A5.26,5.26,0,0,0,123.9,13L14.33,119.11a5.51,5.51,0,0,0,0,7.88l8.37,8.09a5.26,5.26,0,0,0,7.34,0l88.59-85.77a13.17,13.17,0,0,1,18.33,0l87.85,85.09a5.23,5.23,0,0,0,7.33,0l8.26-8a5.51,5.51,0,0,0,0-7.9l-3.89-3.77c-5.32-5.13-10.81-10.45-16.36-15.71a2.26,2.26,0,0,1-.92-2c.07-12.57.05-25.35,0-37.71V51c0-.43,0-.85,0-1.28a5.36,5.36,0,0,0-5.32-5.16H185.59A5.39,5.39,0,0,0,180.26,50V55.8a2,2,0,0,1-3.39,1.43L131.23,13A5.24,5.24,0,0,0,127.57,11.55Z"/></svg>