<svg id="Layer_1" data-name="Layer 1" xmlns="http://www.w3.org/2000/svg" viewBox="0 0 210.13 253.43"><defs><style>.cls-1{fill:#fff;}</style></defs><path class="cls-1" d="M15.46,253.43a16.05,16.05,0,0,1-11.78-5,13.23,13.23,0,0,1-3.65-10L12.29,65.27c.44-6.16,6.11-11,12.9-11H52.3l.21-7.57a46.59,46.59,0,0,1,7.42-24.07,47.77,47.77,0,0,1,8.89-10.13,53.53,53.53,0,0,1,4.42-3.38A59.11,59.11,0,0,1,105.06,0,59.91,59.91,0,0,1,136.9,9.12c1.36.93,3,2.16,4.52,3.47l.06,0,0,0a48.53,48.53,0,0,1,8.68,10,46.5,46.5,0,0,1,7.43,24.06l.24,7.57h27.08c6.81,0,12.47,4.83,12.9,11L210.1,238.42a13.22,13.22,0,0,1-3.64,10,16.09,16.09,0,0,1-11.79,5Zm-5.09-28.28-.73,10.09a8.78,8.78,0,0,0,8.76,9.42H191.72a8.78,8.78,0,0,0,8.77-9.42L197.1,188,188.37,65.77H158.19l1.36,46.37a5.64,5.64,0,0,1-1.65,4.11,7.35,7.35,0,0,1-10,.27,5.71,5.71,0,0,1-1.94-4.15l-.65-46.6H64.82l0,3.46q-.18,13.56-.38,27.12l-.22,16a5.67,5.67,0,0,1-1.92,4.13,7.35,7.35,0,0,1-10-.26,5.62,5.62,0,0,1-1.65-4.11L52,65.77H21.76ZM105,11.38c-3.75.08-13.41.83-22.09,6.07a42.71,42.71,0,0,0-11.24,10l-.54.73-.2.28-.08.13a31.51,31.51,0,0,0-5.74,17.68v.28c0,1.43,0,2.8,0,4.16l0,3.53h80.13l-.05-3.93c0-1.36,0-2.71-.07-4.06a31.2,31.2,0,0,0-5.71-17.63l-.79-1.12a43.14,43.14,0,0,0-11.3-10.1c-8.66-5.23-18.34-6-22.1-6.06Z"/></svg>