<svg id="Layer_1" data-name="Layer 1" xmlns="http://www.w3.org/2000/svg" viewBox="0 0 215.38 257.09"><defs><style>.cls-1{fill:#fff;}</style></defs><path class="cls-1" d="M105.78,120.78a60.39,60.39,0,1,1,60.39-60.39A60.46,60.46,0,0,1,105.78,120.78Zm0-109.93a49.54,49.54,0,1,0,49.54,49.54A49.59,49.59,0,0,0,105.78,10.85Z"/><path class="cls-1" d="M38.59,257.09A39.91,39.91,0,0,1,21,252.27a40.45,40.45,0,0,1-11.39-9.43,41.73,41.73,0,0,1-7.13-12.55C1.88,228.74.2,224.05,0,212.21a132.08,132.08,0,0,1,1.77-24c3-16.5,7.06-39,22.93-51.29A61.89,61.89,0,0,1,40,128.72a38.25,38.25,0,0,1,12.87-2.62h.68a24.28,24.28,0,0,1,6.87,1.1A22.79,22.79,0,0,1,66.09,130c5,3.28,14.26,9.08,18,11.09,9.91,5.41,20,5.42,23.34,5.42h.39c3.74,0,13.68,0,23.58-5.41,3.74-2,13-7.84,17.93-11.1a23.66,23.66,0,0,1,5.73-2.79,25,25,0,0,1,6.87-1.1h.68a38.39,38.39,0,0,1,12.89,2.62,63.36,63.36,0,0,1,15.23,8.19c15.85,12.25,19.92,34.79,22.9,51.25a132.42,132.42,0,0,1,1.79,24.05c-.19,11.79-1.87,16.53-2.42,18.08a42,42,0,0,1-7.14,12.55,40.8,40.8,0,0,1-11.38,9.43,39.89,39.89,0,0,1-17.67,4.82Zm16.48-120a28.85,28.85,0,0,0-9.57,2,51.24,51.24,0,0,0-12.36,6.63c-12.7,9.8-16.28,29.63-18.88,44.11a115,115,0,0,0-1.58,21.43c.1,6.61.72,11.54,1.83,14.66a31.3,31.3,0,0,0,5.4,9.51,30.81,30.81,0,0,0,8.53,7.09,30,30,0,0,0,13.06,3.6H173.8a30,30,0,0,0,13.14-3.6,30.75,30.75,0,0,0,8.53-7.09,31.2,31.2,0,0,0,5.41-9.52c1.12-3.13,1.72-7.92,1.83-14.65a116.61,116.61,0,0,0-1.58-21.43c-2.62-14.5-6.2-34.32-18.88-44.11a51.78,51.78,0,0,0-12.36-6.63,29.32,29.32,0,0,0-9.56-2H160a15.17,15.17,0,0,0-4.32.67,13.4,13.4,0,0,0-3.51,1.73c-4.12,2.7-13.6,8.7-17.78,11-11.42,6.22-22.45,6.22-26.6,6.22h-.27c-3.74,0-15.11,0-26.53-6.22-4.22-2.29-13.83-8.4-17.81-11a13.83,13.83,0,0,0-3.48-1.71,15.52,15.52,0,0,0-4.26-.66Z"/></svg>